HIERARCHY
ROOT joint_0
{
	OFFSET 0.000000 0.000000 0.000000
	CHANNELS 6 Xposition Yposition Zposition Zrotation Yrotation Xrotation 
	JOINT joint_1
	{
		OFFSET 14.113007 -2.961990 123.953979
		CHANNELS 3 Zrotation Yrotation Xrotation
		JOINT joint_2
		{
			OFFSET 0.764000 -2.434006 113.871948
			CHANNELS 3 Zrotation Yrotation Xrotation
			JOINT joint_3
			{
				OFFSET 0.186996 -2.169998 113.753052
				CHANNELS 3 Zrotation Yrotation Xrotation
				JOINT joint_4
				{
					OFFSET 16.096001 -2.720001 160.853027
					CHANNELS 3 Zrotation Yrotation Xrotation
					JOINT joint_5
					{
						OFFSET 34.392006 -0.188995 92.567017
						CHANNELS 3 Zrotation Yrotation Xrotation
						End Site
						{
							OFFSET 0.000000 0.000000 0.000000
						}
					}
				}
				JOINT joint_6
				{
					OFFSET 9.183998 -36.684006 89.597046
					CHANNELS 3 Zrotation Yrotation Xrotation
					JOINT joint_7
					{
						OFFSET 0.486000 -164.365997 -28.984009
						CHANNELS 3 Zrotation Yrotation Xrotation
						JOINT joint_8
						{
							OFFSET 38.899002 -34.967010 -291.651978
							CHANNELS 3 Zrotation Yrotation Xrotation
							JOINT joint_9
							{
								OFFSET 41.714005 -45.890991 -258.857056
								CHANNELS 3 Zrotation Yrotation Xrotation
								End Site
								{
									OFFSET 0.000000 0.000000 0.000000
								}
							}
						}
					}
				}
				JOINT joint_10
				{
					OFFSET 8.867004 33.650002 90.817993
					CHANNELS 3 Zrotation Yrotation Xrotation
					JOINT joint_11
					{
						OFFSET 0.018997 164.299999 -29.368042
						CHANNELS 3 Zrotation Yrotation Xrotation
						JOINT joint_12
						{
							OFFSET 29.440994 30.887997 -293.216919
							CHANNELS 3 Zrotation Yrotation Xrotation
							JOINT joint_13
							{
								OFFSET 46.174011 54.490005 -256.422058
								CHANNELS 3 Zrotation Yrotation Xrotation
								End Site
								{
									OFFSET 0.000000 0.000000 0.000000
								}
							}
						}
					}
				}
			}
		}
	}
	JOINT joint_14
	{
		OFFSET -2.264000 -89.466995 -116.150024
		CHANNELS 3 Zrotation Yrotation Xrotation
		JOINT joint_15
		{
			OFFSET -16.400993 -17.452988 -493.781982
			CHANNELS 3 Zrotation Yrotation Xrotation
			JOINT joint_16
			{
				OFFSET -50.497004 -13.404022 -424.754013
				CHANNELS 3 Zrotation Yrotation Xrotation
				JOINT joint_17
				{
					OFFSET 198.546007 -19.341003 -89.309000
					CHANNELS 3 Zrotation Yrotation Xrotation
					End Site
					{
						OFFSET 0.000000 0.000000 0.000000
					}
				}
			}
		}
	}
	JOINT joint_18
	{
		OFFSET -0.867996 96.016006 -110.817993
		CHANNELS 3 Zrotation Yrotation Xrotation
		JOINT joint_19
		{
			OFFSET -10.130997 24.658998 -493.645020
			CHANNELS 3 Zrotation Yrotation Xrotation
			JOINT joint_20
			{
				OFFSET -48.871004 19.434999 -424.714005
				CHANNELS 3 Zrotation Yrotation Xrotation
				JOINT joint_21
				{
					OFFSET 195.579996 24.926001 -94.327003
					CHANNELS 3 Zrotation Yrotation Xrotation
					End Site
					{
						OFFSET 0.000000 0.000000 0.000000
					}
				}
			}
		}
	}
}
MOTION
Frames: 13
Frame Time: 0.016667
-3342.721680 991.289673 1143.734009 0.312131 -3.831339 -1.788774 -0.324213 -1.690940 3.383615 -0.280575 0.202867 -0.708592 -0.292673 -0.347180 0.498828 -0.377395 -0.536731 0.999784 0.000000 0.000000 0.000000 -2.821618 2.334854 -1.781036 -0.177415 1.873015 0.643361 -0.201296 -0.479823 -1.803861 0.000000 0.000000 0.000000 -4.090515 0.910358 -0.163757 0.268773 1.689373 0.983010 -0.029933 0.280954 -0.502996 0.000000 0.000000 0.000000 2.217431 1.861267 2.051510 2.254412 1.883807 0.814309 2.536836 -5.836067 0.570323 0.000000 0.000000 0.000000 -2.547856 1.369403 1.353383 -2.421300 2.829151 -1.604551 -2.869431 -4.443646 -0.811414 0.000000 0.000000 0.000000 
-3342.801758 991.314392 1143.689941 0.355842 -3.908247 -1.755945 -0.346183 -1.629950 3.357851 -0.304048 0.191878 -0.708010 -0.315568 -0.329707 0.495535 -0.377250 -0.519620 0.999371 0.000000 0.000000 0.000000 -2.821070 2.354197 -1.767542 -0.181461 1.893037 0.624213 -0.196018 -0.497282 -1.790240 0.000000 0.000000 0.000000 -4.068841 0.928081 -0.175651 0.270983 1.703622 0.990614 -0.030937 0.284042 -0.512308 0.000000 0.000000 0.000000 2.203040 1.933135 2.019109 2.240631 1.916599 0.810546 2.525014 -5.849506 0.563699 0.000000 0.000000 0.000000 -2.556828 1.450799 1.307332 -2.436204 2.812158 -1.596160 -2.880568 -4.424745 -0.819165 0.000000 0.000000 0.000000 
-3342.838379 991.349915 1143.619995 0.421276 -4.022569 -1.720732 -0.374949 -1.528443 3.328088 -0.335258 0.175389 -0.707975 -0.345907 -0.302700 0.490889 -0.377260 -0.506390 0.999386 0.000000 0.000000 0.000000 -2.816763 2.366812 -1.752892 -0.184829 1.906879 0.606805 -0.191945 -0.510713 -1.779704 0.000000 0.000000 0.000000 -4.048310 0.940717 -0.183421 0.272835 1.712927 0.997517 -0.031561 0.289433 -0.522266 0.000000 0.000000 0.000000 2.180849 2.051672 1.985067 2.220770 1.950680 0.806381 2.507740 -5.870389 0.553899 0.000000 0.000000 0.000000 -2.570545 1.568918 1.254772 -2.457354 2.805797 -1.586426 -2.898410 -4.413270 -0.829176 0.000000 0.000000 0.000000 
-3342.904297 991.393188 1143.520020 0.548551 -4.183780 -1.680621 -0.420873 -1.369433 3.288020 -0.384750 0.153711 -0.709035 -0.394194 -0.263747 0.484712 -0.377418 -0.500734 0.999830 0.000000 0.000000 0.000000 -2.810923 2.367040 -1.737532 -0.186411 1.908324 0.595199 -0.190356 -0.517059 -1.776882 0.000000 0.000000 0.000000 -4.042123 0.941176 -0.181775 0.273616 1.712431 1.000488 -0.031445 0.298810 -0.532899 0.000000 0.000000 0.000000 2.137816 2.226462 1.945136 2.181893 1.988978 0.804014 2.473131 -5.898739 0.535578 0.000000 0.000000 0.000000 -2.603098 1.719164 1.190216 -2.498098 2.823001 -1.573254 -2.935799 -4.405945 -0.848020 0.000000 0.000000 0.000000 
-3342.924561 991.446411 1143.392944 0.697262 -4.383047 -1.638163 -0.473118 -1.170111 3.242154 -0.441590 0.128153 -0.708666 -0.449598 -0.216563 0.476621 -0.377390 -0.497777 0.999795 0.000000 0.000000 0.000000 -2.803045 2.361055 -1.721882 -0.187145 1.903779 0.586436 -0.189808 -0.520405 -1.777264 0.000000 0.000000 0.000000 -4.038296 0.936784 -0.174879 0.273932 1.707429 1.001887 -0.031094 0.309981 -0.544381 0.000000 0.000000 0.000000 2.086881 2.448863 1.903083 2.136891 2.028217 0.801540 2.433059 -5.934375 0.514087 0.000000 0.000000 0.000000 -2.640281 1.907254 1.118844 -2.545136 2.850267 -1.558588 -2.979884 -4.405984 -0.869126 0.000000 0.000000 0.000000 
-3342.669434 991.522034 1143.233032 0.753805 -4.614080 -1.604529 -0.501689 -0.960206 3.214576 -0.475591 0.102667 -0.710254 -0.482146 -0.167633 0.472928 -0.376025 -0.488520 0.996107 0.000000 0.000000 0.000000 -2.791459 2.362185 -1.711513 -0.189293 1.907234 0.574857 -0.187939 -0.525467 -1.771290 0.000000 0.000000 0.000000 -3.999291 0.945056 -0.176422 0.274792 1.708900 1.005341 -0.031947 0.317154 -0.557747 0.000000 0.000000 0.000000 2.064720 2.715014 1.875026 2.123153 2.061846 0.794148 2.422300 -5.981089 0.504674 0.000000 0.000000 0.000000 -2.642092 2.165155 1.057996 -2.561061 2.863325 -1.545772 -2.995460 -4.430582 -0.873419 0.000000 0.000000 0.000000 
-3342.462646 991.632690 1143.021973 0.634761 -4.912170 -1.585640 -0.479755 -0.690919 3.218531 -0.461218 0.073680 -0.713682 -0.466112 -0.110077 0.475006 -0.372938 -0.456066 0.987867 0.000000 0.000000 0.000000 -2.731645 2.347846 -1.658553 -0.197001 1.904575 0.520376 -0.188419 -0.530404 -1.780083 0.000000 0.000000 0.000000 -3.977732 0.941676 -0.231865 0.281416 1.702764 1.054476 -0.028635 0.332150 -0.557301 0.000000 0.000000 0.000000 2.097834 3.020467 1.869458 2.166269 2.119784 0.782882 2.466143 -6.035502 0.518977 0.000000 0.000000 0.000000 -2.580218 2.514043 1.018768 -2.517535 2.878215 -1.542355 -2.957489 -4.479276 -0.848860 0.000000 0.000000 0.000000 
-3341.980713 991.764771 1142.777954 0.423517 -5.242547 -1.573725 -0.434507 -0.409538 3.240780 -0.424261 0.044460 -0.718690 -0.427466 -0.050810 0.480118 -0.368203 -0.418102 0.975144 0.000000 0.000000 0.000000 -2.666972 2.340404 -1.611548 -0.206015 1.909901 0.463940 -0.187427 -0.537577 -1.782144 0.000000 0.000000 0.000000 -3.920266 0.951078 -0.294356 0.288453 1.703043 1.104624 -0.026637 0.342802 -0.558937 0.000000 0.000000 0.000000 2.159532 3.370447 1.877179 2.240595 2.172082 0.766380 2.539201 -6.101466 0.545262 0.000000 0.000000 0.000000 -2.482726 2.933444 0.989780 -2.442802 2.878166 -1.541549 -2.890881 -4.550126 -0.807714 0.000000 0.000000 0.000000 
-3340.015137 991.887268 1142.542969 0.259581 -5.495123 -1.560609 -0.416292 -0.287245 3.265760 -0.411056 0.028463 -0.726823 -0.413397 -0.021529 0.485617 -0.361183 -0.412733 0.955818 0.000000 0.000000 0.000000 -2.729713 2.424028 -1.720634 -0.206176 1.982546 0.522809 -0.171146 -0.561269 -1.706195 0.000000 0.000000 0.000000 -3.633135 1.065316 -0.236420 0.281431 1.764877 1.025696 -0.043262 0.308157 -0.609801 0.000000 0.000000 0.000000 2.204889 3.779347 1.887983 2.305058 2.120029 0.736624 2.598707 -6.194467 0.562961 0.000000 0.000000 0.000000 -2.395052 3.395277 0.954785 -2.385458 2.788232 -1.523963 -2.836241 -4.659314 -0.767625 0.000000 0.000000 0.000000 
-3336.210449 992.042908 1142.339966 0.188035 -5.659519 -1.558366 -0.448908 -0.394806 3.314698 -0.444190 0.028540 -0.746028 -0.446593 -0.025352 0.497696 -0.354027 -0.426145 0.935225 0.000000 0.000000 0.000000 -3.086863 2.605914 -2.081962 -0.180819 2.097228 0.790989 -0.136071 -0.621763 -1.554299 0.000000 0.000000 0.000000 -2.930269 1.299649 -0.038806 0.251867 1.868571 0.770151 -0.082838 0.206052 -0.707563 0.000000 0.000000 0.000000 2.217141 4.293401 1.907148 2.346641 1.902229 0.702843 2.631851 -6.324957 0.565307 0.000000 0.000000 0.000000 -2.327655 3.935937 0.916122 -2.361449 2.549152 -1.473330 -2.804176 -4.813050 -0.732918 0.000000 0.000000 0.000000 
-3330.921875 992.190002 1142.146973 0.162787 -5.744542 -1.555869 -0.509620 -0.665782 3.366148 -0.501969 0.046223 -0.766673 -0.505323 -0.060719 0.508699 -0.345013 -0.473968 0.909012 0.000000 0.000000 0.000000 -3.564973 2.876688 -2.607889 -0.147802 2.277677 1.167001 -0.085315 -0.693872 -1.316428 0.000000 0.000000 0.000000 -1.995471 1.639347 0.291104 0.209652 2.033624 0.395481 -0.141889 0.062258 -0.864717 0.000000 0.000000 0.000000 2.213473 4.864599 1.929108 2.378839 1.578659 0.655662 2.651725 -6.471100 0.560211 0.000000 0.000000 0.000000 -2.269321 4.517896 0.871645 -2.354415 2.217777 -1.405265 -2.783274 -4.994188 -0.700157 0.000000 0.000000 0.000000 
-3324.013916 992.165955 1141.944946 0.188246 -5.670197 -1.510331 -0.582081 -1.062192 3.333515 -0.567312 0.091461 -0.761036 -0.573027 -0.147410 0.500285 -0.326936 -0.648217 0.858501 0.000000 0.000000 0.000000 -3.784316 3.292176 -3.154891 -0.149725 2.654188 1.460330 -0.014390 -0.725938 -0.903793 0.000000 0.000000 0.000000 -1.175774 2.127825 0.819942 0.169531 2.367967 -0.051935 -0.226289 -0.094791 -1.149138 0.000000 0.000000 0.000000 2.198042 5.367752 1.927321 2.398498 1.231742 0.559498 2.652547 -6.598357 0.548439 0.000000 0.000000 0.000000 -2.234778 5.002938 0.797466 -2.366062 1.893773 -1.347872 -2.782274 -5.181434 -0.676204 0.000000 0.000000 0.000000 
-3314.950439 991.809937 1141.787964 0.282635 -5.349351 -1.398287 -0.677840 -1.706274 3.155564 -0.648015 0.187308 -0.712983 -0.658770 -0.332700 0.459666 -0.291120 -0.988890 0.761258 0.000000 0.000000 0.000000 -3.511801 3.979421 -3.684353 -0.210577 3.399603 1.580786 0.118823 -0.766859 -0.113677 0.000000 0.000000 0.000000 -0.526582 2.886021 1.646798 0.128921 3.001419 -0.563691 -0.378785 -0.341028 -1.711474 0.000000 0.000000 0.000000 2.168971 5.814845 1.921129 2.412687 0.708832 0.333968 2.624784 -6.658340 0.530432 0.000000 0.000000 0.000000 -2.229810 5.339153 0.679236 -2.401087 1.544585 -1.300375 -2.804173 -5.377593 -0.662149 0.000000 0.000000 0.000000 
